<svg width="24" height="25" viewBox="0 0 24 25" fill="none" xmlns="http://www.w3.org/2000/svg">
<path d="M12 22.166C17.5228 22.166 22 17.6889 22 12.166C22 6.64317 17.5228 2.16602 12 2.16602C6.47715 2.16602 2 6.64317 2 12.166C2 17.6889 6.47715 22.166 12 22.166Z" stroke="white" stroke-width="2" stroke-linecap="round" stroke-linejoin="round"/>
<path d="M9.08984 9.1661C9.32495 8.49776 9.789 7.9342 10.3998 7.57523C11.0106 7.21626 11.7287 7.08504 12.427 7.20481C13.1253 7.32458 13.7587 7.68762 14.2149 8.22962C14.6712 8.77163 14.9209 9.45762 14.9198 10.1661C14.9198 12.1661 11.9198 13.1661 11.9198 13.1661" stroke="white" stroke-width="2" stroke-linecap="round" stroke-linejoin="round"/>
<path d="M12 17.166H12.01" stroke="white" stroke-width="2" stroke-linecap="round" stroke-linejoin="round"/>
</svg>
