<svg width="24" height="24" viewBox="0 0 24 24" fill="none" xmlns="http://www.w3.org/2000/svg">
<path d="M10.0495 2.53004L4.02953 6.46004C2.09953 7.72004 2.09953 10.54 4.02953 11.8L10.0495 15.73C11.1295 16.44 12.9095 16.44 13.9895 15.73L19.9795 11.8C21.8995 10.54 21.8995 7.73004 19.9795 6.47004L13.9895 2.54004C12.9095 1.82004 11.1295 1.82004 10.0495 2.53004Z" stroke="white" stroke-width="1.5" stroke-linecap="round" stroke-linejoin="round"/>
<path d="M5.63012 13.0801L5.62012 17.7701C5.62012 19.0401 6.60012 20.4001 7.80012 20.8001L10.9901 21.8601C11.5401 22.0401 12.4501 22.0401 13.0101 21.8601L16.2001 20.8001C17.4001 20.4001 18.3801 19.0401 18.3801 17.7701V13.1301" stroke="white" stroke-width="1.5" stroke-linecap="round" stroke-linejoin="round"/>
<path d="M21.4004 15V9" stroke="white" stroke-width="1.5" stroke-linecap="round" stroke-linejoin="round"/>
</svg>
