<svg width="18" height="20" viewBox="0 0 18 20" fill="none" xmlns="http://www.w3.org/2000/svg">
<path d="M9 0.25C3.95625 0.25 0 2.55625 0 5.5V14.5C0 17.4438 3.95625 19.75 9 19.75C14.0437 19.75 18 17.4438 18 14.5V5.5C18 2.55625 14.0437 0.25 9 0.25ZM16.5 10C16.5 10.9 15.7594 11.8187 14.475 12.5219C13.0219 13.3187 11.0813 13.75 9 13.75C6.91875 13.75 4.97812 13.3187 3.525 12.5219C2.24062 11.8187 1.5 10.9 1.5 10V8.44375C3.10313 9.84062 5.83125 10.75 9 10.75C12.1687 10.75 14.8969 9.84062 16.5 8.44375V10ZM3.525 2.97812C4.97812 2.18125 6.91875 1.75 9 1.75C11.0813 1.75 13.0219 2.18125 14.475 2.97812C15.7594 3.68125 16.5 4.6 16.5 5.5C16.5 6.4 15.7594 7.31875 14.475 8.02188C13.0219 8.81875 11.0813 9.25 9 9.25C6.91875 9.25 4.97812 8.81875 3.525 8.02188C2.24062 7.31875 1.5 6.4 1.5 5.5C1.5 4.6 2.24062 3.68125 3.525 2.97812ZM14.475 17.0219C13.0219 17.8187 11.0813 18.25 9 18.25C6.91875 18.25 4.97812 17.8187 3.525 17.0219C2.24062 16.3187 1.5 15.4 1.5 14.5V12.9437C3.10313 14.3406 5.83125 15.25 9 15.25C12.1687 15.25 14.8969 14.3406 16.5 12.9437V14.5C16.5 15.4 15.7594 16.3187 14.475 17.0219Z" fill="white"/>
</svg>
