<svg width="24" height="25" viewBox="0 0 24 25" fill="none" xmlns="http://www.w3.org/2000/svg">
<path d="M12 15.166C13.6569 15.166 15 13.8229 15 12.166C15 10.5092 13.6569 9.16602 12 9.16602C10.3431 9.16602 9 10.5092 9 12.166C9 13.8229 10.3431 15.166 12 15.166Z" stroke="white" stroke-width="1.5" stroke-miterlimit="10" stroke-linecap="round" stroke-linejoin="round"/>
<path d="M2 13.046V11.286C2 10.246 2.85 9.38595 3.9 9.38595C5.71 9.38595 6.45 8.10595 5.54 6.53595C5.02 5.63595 5.33 4.46595 6.24 3.94595L7.97 2.95595C8.76 2.48595 9.78 2.76595 10.25 3.55595L10.36 3.74595C11.26 5.31595 12.74 5.31595 13.65 3.74595L13.76 3.55595C14.23 2.76595 15.25 2.48595 16.04 2.95595L17.77 3.94595C18.68 4.46595 18.99 5.63595 18.47 6.53595C17.56 8.10595 18.3 9.38595 20.11 9.38595C21.15 9.38595 22.01 10.236 22.01 11.286V13.046C22.01 14.086 21.16 14.946 20.11 14.946C18.3 14.946 17.56 16.226 18.47 17.796C18.99 18.706 18.68 19.866 17.77 20.386L16.04 21.376C15.25 21.846 14.23 21.566 13.76 20.776L13.65 20.586C12.75 19.016 11.27 19.016 10.36 20.586L10.25 20.776C9.78 21.566 8.76 21.846 7.97 21.376L6.24 20.386C5.33 19.866 5.02 18.696 5.54 17.796C6.45 16.226 5.71 14.946 3.9 14.946C2.85 14.946 2 14.086 2 13.046Z" stroke="white" stroke-width="1.5" stroke-miterlimit="10" stroke-linecap="round" stroke-linejoin="round"/>
</svg>
