<svg width="14" height="16" viewBox="0 0 14 16" fill="none" xmlns="http://www.w3.org/2000/svg">
<path d="M9.625 9.66667H9.0325L8.8225 9.44167C9.58291 8.46169 10.0008 7.21058 10 5.91667C10 4.84535 9.71409 3.7981 9.17842 2.90733C8.64275 2.01656 7.88137 1.3223 6.99058 0.912322C6.09979 0.502347 5.11959 0.395079 4.17394 0.604082C3.22828 0.813085 2.35964 1.32897 1.67786 2.08651C0.996076 2.84404 0.531777 3.8092 0.343674 4.85993C0.155571 5.91066 0.252112 6.99977 0.621089 7.98954C0.990067 8.9793 1.61491 9.82527 2.4166 10.4205C3.21829 11.0157 4.16082 11.3333 5.125 11.3333C6.3325 11.3333 7.4425 10.8417 8.2975 10.025L8.5 10.2583V10.9167L12.25 15.075L13.3675 13.8333L9.625 9.66667ZM5.125 9.66667C3.2575 9.66667 1.75 7.99167 1.75 5.91667C1.75 3.84167 3.2575 2.16667 5.125 2.16667C6.9925 2.16667 8.5 3.84167 8.5 5.91667C8.5 7.99167 6.9925 9.66667 5.125 9.66667Z" fill="black" fill-opacity="0.3"/>
</svg>
